<svg width="18" height="21" viewBox="0 0 18 21" fill="none" xmlns="http://www.w3.org/2000/svg">
<path d="M17.5 19C17.7761 19 18 19.2239 18 19.5V20.5C18 20.7761 17.7761 21 17.5 21H0.5C0.223858 21 0 20.7761 0 20.5V19.5C0 19.2239 0.223858 19 0.5 19H17.5ZM2.3623 12.7607H15.4756C16.7785 12.6765 17.9184 13.6902 18 15.042V17.4082C18 17.8307 17.4297 18 17.0225 18H0.977539C0.570387 17.9155 0.000246583 17.7466 0 17.3242V14.958C0.0814462 13.6904 1.22167 12.6758 2.44336 12.6758L2.3623 12.7607ZM8.95898 0C11.1581 0 13.0312 1.77495 13.0312 4.05664V4.22559C12.9497 5.6621 12.2168 6.92991 10.9951 7.69043V8.02832C10.751 8.28181 10.6699 8.62009 10.6699 8.95801V9.37988C10.6699 9.88686 10.5881 10.3099 10.9951 10.7324V10.8174H11.1582C11.8098 10.9019 12.2984 11.4089 12.3799 12.085H5.70117C5.78261 11.409 6.27141 10.902 6.92285 10.8174H7.08594V10.7324C7.33028 10.4789 7.41211 10.1408 7.41211 9.80273V9.37988C7.41215 8.87304 7.493 8.45072 7.08594 8.02832V7.69043C5.70142 6.92992 4.88683 5.49316 4.88672 4.05664V3.8877C4.96816 1.69061 6.76002 0.000149515 8.95898 0Z" fill="#515A62"/>
</svg>
