<svg width="24" height="24" viewBox="0 0 24 24" fill="none" xmlns="http://www.w3.org/2000/svg">
<path d="M12 1C12.4251 1 12.8392 1.13741 13.1807 1.39258L20.4385 6.30957C21.4212 7.04473 22 8.20663 22 9.43945V18.5811C21.9999 20.469 20.4804 22 18.6074 22H16V15C16 13.8954 15.1046 13 14 13H10C8.89543 13 8 13.8954 8 15V22H5.39258C3.51958 22 2.00013 20.469 2 18.5811V9.43945C1.99987 8.83119 2.14092 8.23089 2.41211 7.6875C2.6833 7.14412 3.07693 6.67204 3.56152 6.30957L10.8193 1.39258C11.1608 1.13741 11.5749 1 12 1Z" fill="#515A62"/>
<path d="M9 15C9 14.4477 9.44772 14 10 14H14C14.5523 14 15 14.4477 15 15V22H9V15Z" fill="#515A62"/>
</svg>
