<svg width="23" height="22" viewBox="0 0 23 22" fill="none" xmlns="http://www.w3.org/2000/svg">
<path d="M19.759 17.0732C19.7585 19.3303 16.0612 21.9999 11.5002 21.9999C6.98451 21.9999 3.31535 19.3831 3.24242 17.1406L3.24144 17.0732V9.67282L11.0988 13.0449C11.2233 13.0983 11.3577 13.126 11.4934 13.1269C11.6291 13.1278 11.7636 13.1015 11.8889 13.0498L11.9016 13.0449L19.759 9.67282V17.0732ZM11.5002 0C11.6653 3.18931e-06 11.828 0.0405232 11.9738 0.117187L22.464 5.63182C22.9563 5.89059 23.1432 6.49518 22.882 6.9824C22.7747 7.18234 22.6016 7.34058 22.3918 7.43064L11.9016 11.9316C11.7748 11.986 11.6383 12.0146 11.5002 12.0146C11.3621 12.0146 11.2256 11.986 11.0988 11.9316L0.608641 7.43064C0.0973173 7.21123 -0.138145 6.62329 0.0832517 6.11717C0.174239 5.90944 0.33435 5.73803 0.536375 5.63182L11.0266 0.117187C11.1724 0.0405202 11.3351 0 11.5002 0ZM18.0002 4.99998C17.4479 4.99998 17.0002 5.4477 17.0002 5.99998C17.0002 6.55226 17.4479 6.99998 18.0002 6.99998C18.5524 6.99995 19.0002 6.55225 19.0002 5.99998C19.0002 5.44771 18.5524 5.00001 18.0002 4.99998Z" fill="#515A62"/>
</svg>
