<svg width="24" height="24" viewBox="0 0 24 24" fill="none" xmlns="http://www.w3.org/2000/svg">
<g clip-path="url(#clip0_3_1477)">
<path d="M23.1743 0C23.3875 1.9188e-05 23.5919 0.0846565 23.7427 0.235352C23.8934 0.386063 23.978 0.590581 23.978 0.803711C23.978 1.01686 23.8933 1.22131 23.7427 1.37207C23.5919 1.52283 23.3875 1.60838 23.1743 1.6084H22.3188V16.8789C22.35 17.2755 22.2962 17.6745 22.1616 18.0488C22.027 18.4232 21.8143 18.7648 21.5376 19.0508C21.2609 19.3367 20.9269 19.5611 20.5571 19.708C20.1874 19.8549 19.7905 19.9214 19.3931 19.9033H14.6772L17.2837 22.7715C17.3504 22.843 17.402 22.9275 17.4351 23.0195C17.4681 23.1116 17.4821 23.21 17.4761 23.3076C17.47 23.4052 17.444 23.5007 17.3999 23.5879C17.3557 23.6752 17.2934 23.7527 17.2183 23.8154C17.0665 23.9453 16.8699 24.0116 16.6704 24C16.471 23.9883 16.2835 23.8997 16.1479 23.7529L12.6519 19.9043H11.2739L7.77686 23.7529C7.64118 23.8997 7.45392 23.9884 7.25439 24C7.05483 24.0116 6.85836 23.9455 6.70654 23.8154C6.63146 23.7527 6.57008 23.6751 6.52588 23.5879C6.48174 23.5007 6.45583 23.4052 6.44971 23.3076C6.44364 23.2099 6.45767 23.1117 6.49072 23.0195C6.52379 22.9274 6.57529 22.843 6.64209 22.7715L9.24561 19.9033H4.58838C4.19517 19.906 3.80544 19.829 3.44287 19.6768C3.08032 19.5246 2.75245 19.3001 2.479 19.0176C2.20561 18.735 1.99224 18.3996 1.85205 18.0322C1.71187 17.6647 1.64684 17.2719 1.6626 16.8789V1.6084H0.822754C0.609624 1.60832 0.405106 1.52278 0.254395 1.37207C0.103796 1.22132 0.019043 1.01681 0.019043 0.803711C0.0191195 0.590581 0.103683 0.386063 0.254395 0.235352C0.405106 0.0846405 0.609624 7.65214e-05 0.822754 0H23.1743ZM5.00049 14C4.4482 14 4.00049 14.4477 4.00049 15C4.00049 15.5523 4.4482 16 5.00049 16H18.0005C18.5525 15.9997 19.0005 15.5521 19.0005 15C19.0005 14.4479 18.5525 14.0003 18.0005 14H5.00049ZM5.00049 10C4.4482 10 4.00049 10.4477 4.00049 11C4.00049 11.5523 4.4482 12 5.00049 12H14.0005C14.5525 11.9997 15.0005 11.5521 15.0005 11C15.0005 10.4479 14.5525 10.0003 14.0005 10H5.00049Z" fill="#515A62"/>
</g>
<defs>
<clipPath id="clip0_3_1477">
<rect width="24" height="24" fill="white"/>
</clipPath>
</defs>
</svg>
