<svg width="24" height="24" viewBox="0 0 24 24" fill="none" xmlns="http://www.w3.org/2000/svg">
<path d="M8.08453 13.8899C8.28197 13.8194 8.53547 13.7489 8.81747 13.5659C9.24028 13.2977 9.56447 12.748 8.77528 12.0717C6.18178 8.29429 7.12641 5.79998 7.52091 4.85536C7.15695 4.71402 6.76965 4.6424 6.37922 4.64423H6.23822C3.74372 4.64423 3.08128 6.91317 3.03891 8.19567C3.01059 11.2118 4.84284 12.3957 4.84284 12.3957C4.84284 12.3957 4.95572 12.5505 4.95572 13.0159C4.95572 13.1142 4.88522 13.4385 4.77253 13.5233C3.74372 14.355 0.332718 15.2145 0.0932808 17.0187C-0.0336567 17.5401 0.0368433 18.0756 0.0651558 18.5691C0.628781 19.006 2.41884 19.3583 2.41884 19.3583C2.41884 19.3583 2.57372 18.9074 2.71472 18.1604C2.94009 17.0609 4.43409 15.2712 8.08453 13.8899ZM23.9122 17.0044C23.6725 15.2145 20.1629 14.355 19.106 13.5235C18.979 13.4247 18.9228 13.1144 18.9228 13.0161C18.9228 12.5509 19.0355 12.3959 19.0355 12.3959C19.0355 12.3959 20.9099 11.1977 20.882 8.19586C20.8255 6.92723 20.0363 4.64442 17.5981 4.64442H17.4571C16.9358 4.64442 16.4845 4.74267 16.1043 4.91179C16.6257 6.67354 17.26 9.88729 14.6103 12.0435C13.5672 13.594 17.0202 14.5099 16.4847 14.2564C19.6137 15.6659 20.4453 16.7513 20.6847 17.8643C20.8822 18.7949 20.9806 19.3724 20.9806 19.3724C20.9806 19.3724 23.3204 19.02 23.9264 18.5554C23.9543 18.0617 24.0391 17.5264 23.9122 17.0044ZM13.7225 13.5797C13.5813 13.467 13.4965 13.0724 13.4965 12.9454C13.4965 12.3816 13.6377 12.1844 13.6377 12.1844C13.6377 12.1844 15.9492 10.93 15.907 6.96942C15.8504 5.39104 14.878 2.55811 11.8758 2.55811H11.7067C8.57766 2.55811 7.73222 5.37698 7.67578 6.96942C7.63341 10.7046 9.94472 12.1844 9.94472 12.1844C9.94472 12.1844 10.2267 12.5085 10.2267 13.0722C10.2267 13.1991 10.0012 13.4669 9.86034 13.5795C8.57766 14.6085 3.94078 15.6514 3.64491 17.8785C3.40528 18.8224 2.03822 20.3168 6.60459 20.9226C7.85897 21.0915 9.57834 21.1902 11.8898 21.1902C22.5027 21.1902 20.3039 19.1325 20.008 17.9205C19.6838 15.6797 15.0048 14.6087 13.7225 13.5797Z" fill="#515A62"/>
</svg>
